<?xml version="1.0" standalone="no"?>
<!DOCTYPE svg PUBLIC "-//W3C//DTD SVG 20010904//EN"
 "http://www.w3.org/TR/2001/REC-SVG-20010904/DTD/svg10.dtd">
<svg version="1.0" xmlns="http://www.w3.org/2000/svg"
 width="512.000000pt" height="512.000000pt" viewBox="0 0 512.000000 512.000000"
 preserveAspectRatio="xMidYMid meet">
<metadata>
Created by potrace 1.11, written by Peter Selinger 2001-2013
</metadata>
<g transform="translate(0.000000,512.000000) scale(0.100000,-0.100000)"
fill="#000000" stroke="none">
<path d="M809 5118 c-1 -2 -3 -1153 -4 -2559 l-1 -2555 1750 0 1751 1 0 1740
0 1740 -1337 0 c-736 0 -1338 -2 -1339 -5 -1 -3 -2 -103 -3 -222 l-1 -218 65
0 c36 -1 539 -1 1118 -1 988 0 1052 -1 1053 -17 0 -22 0 -2519 0 -2549 l-1
-23 -1303 0 -1303 0 1 2317 c0 1275 -1 2326 -3 2336 -4 16 -23 17 -223 17
-121 0 -220 -1 -220 -2z"/>
<path d="M2440 4271 c-1 -54 -1 -331 0 -374 l0 -37 723 2 722 3 1 210 c0 116
-1 215 -3 221 -3 7 -220 10 -723 10 l-720 0 0 -35z"/>
</g>
</svg>
